<?xml version="1.0" encoding="utf-8"?>
<!-- Generator: Adobe Illustrator 22.1.0, SVG Export Plug-In . SVG Version: 6.00 Build 0)  -->
<svg version="1.1" id="Layer_1" xmlns="http://www.w3.org/2000/svg" xmlns:xlink="http://www.w3.org/1999/xlink" x="0px" y="0px"
	 viewBox="0 0 24 24" style="enable-background:new 0 0 24 24;" xml:space="preserve">
<style type="text/css">
	.st0{fill:#525351;}
</style>
<g id="ic_x2F_weather_x2F_cloudy-2">
	<g id="icon" transform="translate(2.000000, 4.000000)">
		<g id="shape">
			<path id="path-1_1_" class="st0" d="M18.2,7.4c0.2-0.9,0-1.9-0.5-2.7c-0.6-0.9-1.6-1.4-2.7-1.4c0,0,0,0,0,0c-0.8-2-2.8-3.3-5-3.3
				C7.1,0,4.8,2.2,4.6,5C2,5.2,0,7.4,0,10c0,2.8,2.2,5,5,5h10.8c2.3,0,4.2-1.9,4.2-4.2C20,9.5,19.3,8.2,18.2,7.4"/>
		</g>
	</g>
</g>
</svg>
