<?xml version="1.0" encoding="utf-8"?>
<!-- Generator: Adobe Illustrator 22.1.0, SVG Export Plug-In . SVG Version: 6.00 Build 0)  -->
<svg version="1.1" id="Layer_1" xmlns="http://www.w3.org/2000/svg" xmlns:xlink="http://www.w3.org/1999/xlink" x="0px" y="0px"
	 viewBox="0 0 24 24" style="enable-background:new 0 0 24 24;" xml:space="preserve">
<style type="text/css">
	.st0{fill:#525351;}
</style>
<g id="ic_x2F_weather_x2F_rainy-2">
	<g id="_xD83C__xDFA8_-color" transform="translate(3.000000, 2.000000)">
		<g id="Mask">
			<path id="path-1_1_" class="st0" d="M4.9,15.1c0.2,0.2,0.2,0.4,0,0.6l-4.2,4.2C0.6,20,0.5,20,0.4,20c-0.1,0-0.2,0-0.3-0.1
				c-0.2-0.2-0.2-0.4,0-0.6l4.2-4.2C4.5,15,4.7,15,4.9,15.1z M7.4,15.1c0.2,0.2,0.2,0.4,0,0.6L4,19c-0.1,0.1-0.2,0.1-0.3,0.1
				c-0.1,0-0.2,0-0.3-0.1c-0.2-0.2-0.2-0.4,0-0.6l3.3-3.3C7,15,7.2,15,7.4,15.1z M9.9,15.1c0.2,0.2,0.2,0.4,0,0.6l-4.2,4.2
				C5.6,20,5.5,20,5.4,20c-0.1,0-0.2,0-0.3-0.1c-0.2-0.2-0.2-0.4,0-0.6l4.2-4.2C9.5,15,9.7,15,9.9,15.1z M12.4,15.1
				c0.2,0.2,0.2,0.4,0,0.6L9,19c-0.1,0.1-0.2,0.1-0.3,0.1c-0.1,0-0.2,0-0.3-0.1c-0.2-0.2-0.2-0.4,0-0.6l3.3-3.3
				C12,15,12.2,15,12.4,15.1z M14.3,15.1c0.2-0.2,0.4-0.2,0.6,0c0.2,0.2,0.2,0.4,0,0.6l-4.2,4.2C10.6,20,10.5,20,10.4,20
				c-0.1,0-0.2,0-0.3-0.1c-0.2-0.2-0.2-0.4,0-0.6L14.3,15.1z M17,6.7c0.9,0.7,1.4,1.8,1.4,2.9c0,2.1-1.7,3.8-3.8,3.8H5.4
				c-2.5,0-4.6-2.1-4.6-4.6c0-2.3,1.6-4.2,3.8-4.5C5,1.8,7.1,0,9.6,0c1.9,0,3.7,1.2,4.5,2.9c1,0,1.9,0.5,2.5,1.3
				C17.1,5,17.2,5.9,17,6.7z"/>
		</g>
	</g>
</g>
</svg>
