<?xml version="1.0" encoding="utf-8"?>
<!-- Generator: Adobe Illustrator 22.1.0, SVG Export Plug-In . SVG Version: 6.00 Build 0)  -->
<svg version="1.1" id="Layer_1" xmlns="http://www.w3.org/2000/svg" xmlns:xlink="http://www.w3.org/1999/xlink" x="0px" y="0px"
	 viewBox="0 0 24 24" style="enable-background:new 0 0 24 24;" xml:space="preserve">
<style type="text/css">
	.st0{fill:#525351;}
</style>
<g id="ic_x2F_weather_x2F_partly-sunny">
	<g id="icon" transform="translate(2.000000, 2.000000)">
		<g id="shape">
			<path id="path-1_1_" class="st0" d="M7.9,1.7c-0.2,0-0.4-0.2-0.4-0.4V0.4C7.5,0.2,7.7,0,7.9,0c0.2,0,0.4,0.2,0.4,0.4v0.8
				C8.3,1.5,8.1,1.7,7.9,1.7z M2.9,3.3c-0.1,0-0.2,0-0.3-0.1L1.8,2.3c-0.2-0.2-0.2-0.4,0-0.6c0.2-0.2,0.4-0.2,0.6,0l0.8,0.8
				c0.2,0.2,0.2,0.4,0,0.6C3.1,3.3,3,3.3,2.9,3.3z M12.9,3.3c-0.1,0-0.2,0-0.3-0.1c-0.2-0.2-0.2-0.4,0-0.6l0.8-0.8
				c0.2-0.2,0.4-0.2,0.6,0c0.2,0.2,0.2,0.4,0,0.6l-0.8,0.8C13.1,3.3,13,3.3,12.9,3.3z M1.2,7.5c0.2,0,0.4,0.2,0.4,0.4
				c0,0.2-0.2,0.4-0.4,0.4H0.4C0.2,8.3,0,8.1,0,7.9c0-0.2,0.2-0.4,0.4-0.4H1.2z M5.6,10.2c-0.7,0.2-1.4,0.6-2,1
				c-0.7-0.9-1.1-2-1.1-3.3c0-3,2.4-5.4,5.4-5.4c2.3,0,4.3,1.5,5.1,3.6c-0.6-0.2-1.2-0.3-1.8-0.3C8.6,5.8,6.3,7.6,5.6,10.2z
				 M20,15.8c0,0.1,0,0.3,0,0.4c0,2.1-1.7,3.8-3.7,3.8H7.1c-2.5,0-4.6-2.1-4.6-4.6c0-0.1,0-0.3,0-0.4c0,0,0-0.1,0-0.1
				c0-0.1,0-0.2,0-0.3c0,0,0-0.1,0-0.1c0-0.1,0-0.2,0.1-0.3c0,0,0-0.1,0-0.1c0-0.1,0.1-0.2,0.1-0.3c0,0,0-0.1,0-0.1
				c0-0.1,0.1-0.2,0.1-0.3c0,0,0,0,0-0.1c0-0.1,0.1-0.2,0.2-0.3c0,0,0,0,0,0c0.1-0.1,0.1-0.2,0.2-0.3c0,0,0,0,0,0
				c0.1-0.1,0.1-0.2,0.2-0.3c0,0,0,0,0,0c0.1-0.1,0.2-0.2,0.2-0.3c0,0,0,0,0,0C3.9,12,4,12,4.1,11.9c0,0,0,0,0,0c0,0,0,0,0,0h0
				c0.5-0.4,1.2-0.7,1.9-0.9c0.2,0,0.3-0.2,0.3-0.3c0.5-2.3,2.5-4,4.9-4c1.8,0,3.6,1.1,4.4,2.7c0,0.1,0.1,0.2,0.1,0.2
				c0.1,0,0.2,0,0.3,0c0.1,0,0.1,0,0.2,0c0,0,0.1,0,0.1,0c0.1,0,0.1,0,0.2,0c0,0,0.1,0,0.1,0c0.1,0,0.1,0,0.2,0.1
				c0.1,0,0.1,0,0.2,0.1c0,0,0.1,0,0.1,0.1c0.1,0,0.1,0.1,0.2,0.1c0,0,0.1,0,0.1,0c0.1,0.1,0.1,0.1,0.2,0.2c0,0,0,0,0.1,0
				c0.1,0.1,0.1,0.1,0.2,0.2c0,0,0,0,0,0c0.1,0.1,0.2,0.2,0.2,0.3c0.1,0.1,0.1,0.2,0.2,0.3c0,0,0,0,0,0.1c0,0.1,0.1,0.1,0.1,0.2
				c0,0,0,0,0,0.1c0,0.1,0.1,0.1,0.1,0.2c0,0,0,0,0,0.1c0,0.1,0,0.1,0,0.2c0,0,0,0,0,0.1c0,0.1,0,0.1,0,0.2c0,0,0,0.1,0,0.1
				c0,0.1,0,0.1,0,0.2c0,0,0,0.1,0,0.1c0,0.1,0,0.1,0,0.2c0,0,0,0.1,0,0.1c0,0.1,0,0.2-0.1,0.3c0.1,0.1,0.2,0.2,0.2,0.2
				c0,0,0.1,0.1,0.1,0.1c0,0,0.1,0.1,0.1,0.2c0,0.1,0.1,0.1,0.1,0.1c0,0.1,0.1,0.1,0.1,0.2c0,0.1,0.1,0.1,0.1,0.2
				c0,0,0.1,0.1,0.1,0.2c0,0.1,0.1,0.1,0.1,0.2c0,0,0,0.1,0.1,0.2c0,0.1,0.1,0.1,0.1,0.2c0,0.1,0,0.1,0,0.2c0,0.1,0,0.1,0.1,0.2
				c0,0.1,0,0.1,0,0.2C20,15.7,20,15.8,20,15.8z"/>
		</g>
	</g>
</g>
</svg>
