<?xml version="1.0" encoding="utf-8"?>
<!-- Generator: Adobe Illustrator 22.1.0, SVG Export Plug-In . SVG Version: 6.00 Build 0)  -->
<svg version="1.1" id="Layer_1" xmlns="http://www.w3.org/2000/svg" xmlns:xlink="http://www.w3.org/1999/xlink" x="0px" y="0px"
	 viewBox="0 0 24 24" style="enable-background:new 0 0 24 24;" xml:space="preserve">
<style type="text/css">
	.st0{fill:#525351;}
</style>
<g id="ic_x2F_weather_x2F_moon">
	<g id="icon" transform="translate(7.000000, 2.000000)">
		<g id="shape">
			<path id="path-1_1_" class="st0" d="M1.5,0C1.1,0,0.8,0,0.4,0.1C0.2,0.1,0,0.2,0,0.4c0,0.2,0.1,0.4,0.2,0.4
				C3.5,2.5,5.7,6.1,5.7,10s-2.1,7.5-5.5,9.1C0.1,19.2,0,19.4,0,19.6c0,0.2,0.2,0.3,0.4,0.3C0.8,20,1.2,20,1.5,20
				c5.5,0,10-4.5,10-10C11.5,4.5,7,0,1.5,0"/>
		</g>
	</g>
</g>
</svg>
