<?xml version="1.0" encoding="utf-8"?>
<!-- Generator: Adobe Illustrator 22.1.0, SVG Export Plug-In . SVG Version: 6.00 Build 0)  -->
<svg version="1.1" id="Layer_1" xmlns="http://www.w3.org/2000/svg" xmlns:xlink="http://www.w3.org/1999/xlink" x="0px" y="0px"
	 viewBox="0 0 24 24" style="enable-background:new 0 0 24 24;" xml:space="preserve">
<style type="text/css">
	.st0{fill:#525351;}
</style>
<g id="ic_x2F_weather_x2F_rainy">
	<g id="icon" transform="translate(3.000000, 2.000000)">
		<g id="shape">
			<path id="path-1_1_" class="st0" d="M4.9,15.1c0.2,0.2,0.2,0.4,0,0.6l-4.2,4.2C0.6,20,0.5,20,0.4,20c-0.1,0-0.2,0-0.3-0.1
				c-0.2-0.2-0.2-0.4,0-0.6l4.2-4.2C4.5,15,4.7,15,4.9,15.1z M9,15.1c0.2,0.2,0.2,0.4,0,0.6l-4.2,4.2C4.8,20,4.7,20,4.6,20
				c-0.1,0-0.2,0-0.3-0.1c-0.2-0.2-0.2-0.4,0-0.6l4.2-4.2C8.6,15,8.9,15,9,15.1z M12.6,15.1c0.2-0.2,0.4-0.2,0.6,0
				c0.2,0.2,0.2,0.4,0,0.6L9,19.9C9,20,8.9,20,8.8,20c-0.1,0-0.2,0-0.3-0.1c-0.2-0.2-0.2-0.4,0-0.6L12.6,15.1z M16.1,6.7
				c0.9,0.7,1.4,1.8,1.4,2.9c0,2.1-1.7,3.8-3.8,3.8H4.6C2.1,13.4,0,11.3,0,8.8c0-2.3,1.6-4.2,3.8-4.5C4.2,1.8,6.3,0,8.8,0
				c1.9,0,3.7,1.2,4.5,2.9c1,0,1.9,0.5,2.5,1.3C16.3,5,16.4,5.9,16.1,6.7z"/>
		</g>
	</g>
</g>
</svg>
