<?xml version="1.0" encoding="utf-8"?>
<!-- Generator: Adobe Illustrator 22.1.0, SVG Export Plug-In . SVG Version: 6.00 Build 0)  -->
<svg version="1.1" id="Layer_1" xmlns="http://www.w3.org/2000/svg" xmlns:xlink="http://www.w3.org/1999/xlink" x="0px" y="0px"
	 viewBox="0 0 24 24" style="enable-background:new 0 0 24 24;" xml:space="preserve">
<style type="text/css">
	.st0{fill:#525351;}
</style>
<g id="ic_x2F_weather_x2F_cloudy-night">
	<g id="icon" transform="translate(2.000000, 2.000000)">
		<g id="Mask">
			<path id="path-1_1_" class="st0" d="M19.8,11.1c0.1,0.1,0.2,0.2,0.2,0.4c0,0.2-0.1,0.3-0.2,0.4c-0.8,0.4-1.7,0.6-2.7,0.7
				c0-0.7-0.2-1.5-0.6-2.1c-0.6-0.9-1.6-1.5-2.7-1.7c-0.7-1.2-1.8-2.1-3-2.6C10.9,5.5,11,4.9,11,4.9C11.6,2,14.1,0,17.1,0
				c0.9,0,1.8,0.2,2.7,0.6C19.9,0.7,20,0.8,20,1s-0.1,0.3-0.2,0.4c-1.9,0.9-3.1,2.8-3.1,4.9S17.9,10.2,19.8,11.1z M17.5,15.7
				c0,0.1,0,0.1,0,0.2c0,0.1,0,0.3,0,0.4c0,2.1-1.7,3.8-3.8,3.8H4.6C2.1,20,0,17.9,0,15.4c0-0.1,0-0.3,0-0.4c0,0,0-0.1,0-0.1
				c0-0.1,0-0.2,0-0.3c0,0,0-0.1,0-0.1c0-0.1,0-0.2,0.1-0.3c0,0,0-0.1,0-0.1c0-0.1,0.1-0.2,0.1-0.3c0,0,0-0.1,0-0.1
				c0-0.1,0.1-0.2,0.1-0.3c0,0,0,0,0-0.1c0-0.1,0.1-0.2,0.2-0.3c0,0,0,0,0,0c0.1-0.1,0.1-0.2,0.2-0.3c0,0,0,0,0,0
				c0.1-0.1,0.1-0.2,0.2-0.3c0,0,0,0,0,0c0.1-0.1,0.2-0.2,0.2-0.3c0,0,0,0,0,0c0.1-0.1,0.2-0.2,0.3-0.2c0,0,0,0,0,0
				c0.1-0.1,0.2-0.1,0.3-0.2c0,0,0,0,0.1,0c0.1-0.1,0.2-0.1,0.3-0.2c0,0,0.1,0,0.1-0.1c0.1,0,0.2-0.1,0.3-0.1c0,0,0.1,0,0.1-0.1
				c0.1,0,0.2-0.1,0.2-0.1c0,0,0.1,0,0.1-0.1c0.1,0,0.1,0,0.2-0.1c0.1,0,0.1,0,0.2,0c0.1,0,0.2-0.1,0.3-0.1c0-0.1,0-0.2,0.1-0.3
				c0-0.1,0-0.2,0.1-0.2c0-0.1,0-0.1,0.1-0.2c0-0.1,0-0.1,0.1-0.2c0-0.1,0.1-0.2,0.1-0.2c0-0.1,0-0.1,0.1-0.2c0-0.1,0.1-0.2,0.1-0.2
				c0,0,0-0.1,0.1-0.1C4.5,9.1,4.5,9,4.6,8.9c0,0,0-0.1,0.1-0.1c0.1-0.1,0.1-0.2,0.2-0.3c0,0,0-0.1,0.1-0.1C5,8.4,5.1,8.3,5.1,8.2
				c0,0,0-0.1,0.1-0.1C5.3,8.1,5.4,8,5.5,7.9c0,0,0,0,0.1-0.1c0.1-0.1,0.2-0.1,0.3-0.2c0,0,0.1,0,0.1-0.1C6,7.5,6,7.5,6.1,7.4
				c0,0,0.1,0,0.1-0.1c0.1-0.1,0.2-0.1,0.3-0.1c0,0,0.1,0,0.1-0.1c0.1,0,0.2-0.1,0.3-0.1C6.9,7,7,7,7,7c0.1,0,0.2-0.1,0.3-0.1
				c0,0,0.1,0,0.2,0c0.1,0,0.2,0,0.3-0.1c0.1,0,0.1,0,0.2,0c0.1,0,0.2,0,0.3,0c0,0,0.1,0,0.1,0c0.1,0,0.3,0,0.4,0c0.1,0,0.2,0,0.4,0
				c0.1,0,0.2,0,0.2,0c0,0,0.1,0,0.1,0c0.1,0,0.2,0,0.3,0.1c0,0,0,0,0,0c1.4,0.3,2.7,1.3,3.4,2.6c0.1,0.1,0.2,0.2,0.3,0.2
				c0.9,0.1,1.7,0.5,2.2,1.3c0.3,0.5,0.5,1.1,0.5,1.7c0,0,0,0,0,0c0,0,0,0.1,0,0.1c0,0,0,0.1,0,0.1c0,0.1,0,0.1,0,0.2
				c0,0,0,0.1,0,0.1c0,0.1,0,0.2-0.1,0.3c0.1,0.1,0.2,0.2,0.2,0.2c0,0,0.1,0.1,0.1,0.1c0,0.1,0.1,0.1,0.1,0.2c0,0.1,0.1,0.1,0.1,0.1
				c0,0.1,0.1,0.1,0.1,0.2c0,0.1,0.1,0.1,0.1,0.2c0,0,0.1,0.1,0.1,0.1c0,0.1,0.1,0.1,0.1,0.2c0,0.1,0,0.1,0.1,0.2
				c0,0.1,0.1,0.1,0.1,0.2c0,0.1,0,0.1,0,0.2c0,0.1,0,0.1,0.1,0.2C17.4,15.5,17.4,15.6,17.5,15.7z"/>
		</g>
	</g>
</g>
</svg>
