<?xml version="1.0" encoding="utf-8"?>
<!-- Generator: Adobe Illustrator 22.1.0, SVG Export Plug-In . SVG Version: 6.00 Build 0)  -->
<svg version="1.1" id="Layer_1" xmlns="http://www.w3.org/2000/svg" xmlns:xlink="http://www.w3.org/1999/xlink" x="0px" y="0px"
	 viewBox="0 0 24 24" style="enable-background:new 0 0 24 24;" xml:space="preserve">
<style type="text/css">
	.st0{fill:#525351;}
</style>
<g id="ic_x2F_weather_x2F_cloudy">
	<g id="icon" transform="translate(2.000000, 2.000000)">
		<g id="shape">
			<path id="path-1_1_" class="st0" d="M18.6,6.7C19.5,7.4,20,8.4,20,9.6c0,1.8-1.2,3.2-2.8,3.6c0-0.1-0.1-0.1-0.1-0.1
				c0.1-0.9-0.1-1.8-0.6-2.6c-0.6-0.9-1.6-1.5-2.7-1.7c-1-1.8-3-2.9-5.1-2.9c-2.6,0-5,1.8-5.6,4.4c-0.1,0-0.2,0.1-0.3,0.1
				c-0.2-0.5-0.3-1-0.3-1.6c0-2.3,1.6-4.2,3.8-4.5C6.7,1.8,8.8,0,11.2,0c1.9,0,3.7,1.2,4.5,2.9c0,0,0,0,0.1,0c1,0,1.9,0.5,2.4,1.3
				C18.8,5,18.9,5.9,18.6,6.7z M17.5,15.7c0,0.1,0,0.1,0,0.2c0,0.1,0,0.3,0,0.4c0,2.1-1.7,3.8-3.8,3.8H4.6C2.1,20,0,17.9,0,15.4
				c0-0.1,0-0.3,0-0.4c0,0,0-0.1,0-0.1c0-0.1,0-0.2,0-0.3c0,0,0-0.1,0-0.1c0-0.1,0-0.2,0.1-0.3c0,0,0-0.1,0-0.1
				c0-0.1,0.1-0.2,0.1-0.3c0,0,0-0.1,0-0.1c0-0.1,0.1-0.2,0.1-0.3c0,0,0,0,0-0.1c0-0.1,0.1-0.2,0.2-0.3c0,0,0,0,0,0
				c0.1-0.1,0.1-0.2,0.2-0.3c0,0,0,0,0,0c0.1-0.1,0.1-0.2,0.2-0.3c0,0,0,0,0,0c0.1-0.1,0.2-0.2,0.2-0.3c0,0,0,0,0,0
				c0.1-0.1,0.2-0.2,0.3-0.2c0,0,0,0,0,0c0.1-0.1,0.2-0.1,0.3-0.2c0,0,0,0,0.1,0c0.1-0.1,0.2-0.1,0.3-0.2c0,0,0.1,0,0.1-0.1
				c0.1,0,0.2-0.1,0.3-0.1c0,0,0.1,0,0.1-0.1c0.1,0,0.2-0.1,0.2-0.1c0,0,0.1,0,0.1-0.1c0,0,0,0,0.1,0h0C3.3,11,3.4,11,3.5,10.9
				c0.2,0,0.3-0.2,0.3-0.3c0.5-2.3,2.5-4,4.9-4c1.8,0,3.6,1.1,4.4,2.7c0.1,0.1,0.2,0.2,0.3,0.2c0.9,0.1,1.7,0.5,2.2,1.3
				c0.4,0.7,0.6,1.5,0.4,2.2c0,0.1,0,0.1,0,0.2h-0.1c0,0,0,0,0,0c0.1,0.1,0.2,0.2,0.2,0.2c0,0,0.1,0.1,0.1,0.1
				c0.1,0.1,0.1,0.1,0.1,0.2c0,0.1,0.1,0.1,0.1,0.1c0,0.1,0.1,0.1,0.1,0.2c0,0.1,0.1,0.1,0.1,0.2c0,0.1,0.1,0.1,0.1,0.2
				c0,0.1,0.1,0.1,0.1,0.2c0,0.1,0,0.1,0.1,0.2c0,0.1,0.1,0.1,0.1,0.2c0,0.1,0,0.1,0.1,0.2c0,0.1,0,0.1,0.1,0.2
				C17.4,15.5,17.4,15.6,17.5,15.7z"/>
		</g>
	</g>
</g>
</svg>
