<?xml version="1.0" encoding="utf-8"?>
<!-- Generator: Adobe Illustrator 22.1.0, SVG Export Plug-In . SVG Version: 6.00 Build 0)  -->
<svg version="1.1" id="Layer_1" xmlns="http://www.w3.org/2000/svg" xmlns:xlink="http://www.w3.org/1999/xlink" x="0px" y="0px"
	 viewBox="0 0 24 24" style="enable-background:new 0 0 24 24;" xml:space="preserve">
<style type="text/css">
	.st0{fill:#525351;}
</style>
<g id="ic_x2F_weather_x2F_sunny">
	<g id="icon" transform="translate(2.000000, 2.000000)">
		<g id="shape">
			<path id="path-1_1_" class="st0" d="M10,3.3c3.7,0,6.7,3,6.7,6.7s-3,6.7-6.7,6.7s-6.7-3-6.7-6.7S6.3,3.3,10,3.3z M10,17.5
				c0.2,0,0.4,0.2,0.4,0.4v1.7c0,0.2-0.2,0.4-0.4,0.4c-0.2,0-0.4-0.2-0.4-0.4v-1.7C9.6,17.7,9.8,17.5,10,17.5z M16.1,15.5l1.2,1.2
				c0.2,0.2,0.2,0.4,0,0.6c-0.1,0.1-0.2,0.1-0.3,0.1s-0.2,0-0.3-0.1l-1.3-1.2c-0.2-0.2-0.2-0.4,0-0.6C15.7,15.4,16,15.4,16.1,15.5z
				 M19.6,9.6c0.2,0,0.4,0.2,0.4,0.4c0,0.2-0.2,0.4-0.4,0.4h-1.7c-0.2,0-0.4-0.2-0.4-0.4c0-0.2,0.2-0.4,0.4-0.4H19.6z M15.8,4.6
				c-0.1,0-0.2,0-0.3-0.1c-0.2-0.2-0.2-0.4,0-0.6l1.3-1.2c0.2-0.2,0.4-0.2,0.6,0c0.2,0.2,0.2,0.4,0,0.6l-1.2,1.2
				C16,4.5,15.9,4.6,15.8,4.6z M10,2.5c-0.2,0-0.4-0.2-0.4-0.4l0-1.7C9.6,0.2,9.8,0,10,0c0.2,0,0.4,0.2,0.4,0.4l0,1.7
				C10.4,2.3,10.2,2.5,10,2.5z M3.9,4.4L2.6,3.2C2.5,3,2.5,2.8,2.6,2.6c0.2-0.2,0.4-0.2,0.6,0l1.2,1.2c0.2,0.2,0.2,0.4,0,0.6
				C4.4,4.5,4.3,4.6,4.2,4.6S4,4.5,3.9,4.4z M2.1,9.6c0.2,0,0.4,0.2,0.4,0.4c0,0.2-0.2,0.4-0.4,0.4H0.4C0.2,10.4,0,10.2,0,10
				c0-0.2,0.2-0.4,0.4-0.4H2.1z M3.9,15.5c0.2-0.2,0.4-0.2,0.6,0c0.2,0.2,0.2,0.4,0,0.6l-1.2,1.2c-0.1,0.1-0.2,0.1-0.3,0.1
				c-0.1,0-0.2,0-0.3-0.1c-0.2-0.2-0.2-0.4,0-0.6L3.9,15.5z"/>
		</g>
	</g>
</g>
</svg>
